<svg width="120" height="28" viewBox="0 0 120 28" fill="none" xmlns="http://www.w3.org/2000/svg">
<path d="M8.55078 7.02344C6.94141 7.02344 5.67578 7.59375 4.75391 8.73438C3.83203 9.875 3.37109 11.4492 3.37109 13.457C3.37109 15.5586 3.8125 17.1484 4.69531 18.2266C5.58594 19.3047 6.87109 19.8438 8.55078 19.8438C9.27734 19.8438 9.98047 19.7734 10.6602 19.6328C11.3398 19.4844 12.0469 19.2969 12.7812 19.0703V21.4727C11.4375 21.9805 9.91406 22.2344 8.21094 22.2344C5.70312 22.2344 3.77734 21.4766 2.43359 19.9609C1.08984 18.4375 0.417969 16.2617 0.417969 13.4336C0.417969 11.6523 0.742188 10.0938 1.39062 8.75781C2.04688 7.42188 2.99219 6.39844 4.22656 5.6875C5.46094 4.97656 6.91016 4.62109 8.57422 4.62109C10.3242 4.62109 11.9414 4.98828 13.4258 5.72266L12.418 8.05469C11.8398 7.78125 11.2266 7.54297 10.5781 7.33984C9.9375 7.12891 9.26172 7.02344 8.55078 7.02344ZM31.6836 13.4102C31.6836 16.1992 30.9844 18.3672 29.5859 19.9141C28.1953 21.4609 26.2227 22.2344 23.668 22.2344C21.082 22.2344 19.0938 21.4688 17.7031 19.9375C16.3203 18.3984 15.6289 16.2148 15.6289 13.3867C15.6289 10.5586 16.3242 8.38672 17.7148 6.87109C19.1133 5.35547 21.1055 4.59766 23.6914 4.59766C26.2383 4.59766 28.207 5.36719 29.5977 6.90625C30.9883 8.44531 31.6836 10.6133 31.6836 13.4102ZM18.6055 13.4102C18.6055 15.5195 19.0312 17.1211 19.8828 18.2148C20.7344 19.3008 21.9961 19.8438 23.668 19.8438C25.332 19.8438 26.5859 19.3047 27.4297 18.2266C28.2812 17.1484 28.707 15.543 28.707 13.4102C28.707 11.3086 28.2852 9.71484 27.4414 8.62891C26.6055 7.54297 25.3555 7 23.6914 7C22.0117 7 20.7422 7.54297 19.8828 8.62891C19.0312 9.71484 18.6055 11.3086 18.6055 13.4102ZM35.3633 22V4.86719H38.1641V19.5977H45.418V22H35.3633ZM58.0625 22H48.3711V4.86719H58.0625V7.23438H51.1719V11.8984H57.6289V14.2422H51.1719V19.6211H58.0625V22ZM69.0664 7.02344C67.457 7.02344 66.1914 7.59375 65.2695 8.73438C64.3477 9.875 63.8867 11.4492 63.8867 13.457C63.8867 15.5586 64.3281 17.1484 65.2109 18.2266C66.1016 19.3047 67.3867 19.8438 69.0664 19.8438C69.793 19.8438 70.4961 19.7734 71.1758 19.6328C71.8555 19.4844 72.5625 19.2969 73.2969 19.0703V21.4727C71.9531 21.9805 70.4297 22.2344 68.7266 22.2344C66.2188 22.2344 64.293 21.4766 62.9492 19.9609C61.6055 18.4375 60.9336 16.2617 60.9336 13.4336C60.9336 11.6523 61.2578 10.0938 61.9062 8.75781C62.5625 7.42188 63.5078 6.39844 64.7422 5.6875C65.9766 4.97656 67.4258 4.62109 69.0898 4.62109C70.8398 4.62109 72.457 4.98828 73.9414 5.72266L72.9336 8.05469C72.3555 7.78125 71.7422 7.54297 71.0938 7.33984C70.4531 7.12891 69.7773 7.02344 69.0664 7.02344ZM70.6719 25.1641C70.6719 26.8984 69.4805 27.7656 67.0977 27.7656C66.582 27.7656 66.1094 27.707 65.6797 27.5898V25.9844C66.1016 26.0938 66.582 26.1484 67.1211 26.1484C67.543 26.1484 67.875 26.082 68.1172 25.9492C68.3672 25.8242 68.4922 25.5859 68.4922 25.2344C68.4922 24.5703 67.793 24.1406 66.3945 23.9453L67.3789 22H69.1602L68.6797 23.0312C69.3047 23.1953 69.793 23.4609 70.1445 23.8281C70.4961 24.2031 70.6719 24.6484 70.6719 25.1641ZM92.1992 13.4102C92.1992 16.1992 91.5 18.3672 90.1016 19.9141C88.7109 21.4609 86.7383 22.2344 84.1836 22.2344C81.5977 22.2344 79.6094 21.4688 78.2188 19.9375C76.8359 18.3984 76.1445 16.2148 76.1445 13.3867C76.1445 10.5586 76.8398 8.38672 78.2305 6.87109C79.6289 5.35547 81.6211 4.59766 84.207 4.59766C86.7539 4.59766 88.7227 5.36719 90.1133 6.90625C91.5039 8.44531 92.1992 10.6133 92.1992 13.4102ZM79.1211 13.4102C79.1211 15.5195 79.5469 17.1211 80.3984 18.2148C81.25 19.3008 82.5117 19.8438 84.1836 19.8438C85.8477 19.8438 87.1016 19.3047 87.9453 18.2266C88.7969 17.1484 89.2227 15.543 89.2227 13.4102C89.2227 11.3086 88.8008 9.71484 87.957 8.62891C87.1211 7.54297 85.8711 7 84.207 7C82.5273 7 81.2578 7.54297 80.3984 8.62891C79.5469 9.71484 79.1211 11.3086 79.1211 13.4102ZM85.8594 3.49609C85.5312 3.49609 85.207 3.42969 84.8867 3.29688C84.5742 3.15625 84.2656 3.00391 83.9609 2.83984C83.6562 2.66797 83.3594 2.51562 83.0703 2.38281C82.7812 2.24219 82.5039 2.17188 82.2383 2.17188C81.6055 2.17188 81.1797 2.62109 80.9609 3.51953H79.5312C79.625 2.43359 79.9258 1.60547 80.4336 1.03516C80.9492 0.464844 81.6055 0.179688 82.4023 0.179688C82.7383 0.179688 83.0664 0.25 83.3867 0.390625C83.707 0.523437 84.0195 0.675781 84.3242 0.847656C84.6289 1.01172 84.9219 1.16406 85.2031 1.30469C85.4922 1.4375 85.7695 1.50391 86.0352 1.50391C86.6523 1.50391 87.0664 1.05469 87.2773 0.15625H88.7422C88.6484 1.20312 88.3477 2.02344 87.8398 2.61719C87.332 3.20312 86.6719 3.49609 85.8594 3.49609ZM105.57 22H95.8789V4.86719H105.57V7.23438H98.6797V11.8984H105.137V14.2422H98.6797V19.6211H105.57V22ZM119.164 17.3477C119.164 18.8711 118.613 20.0664 117.512 20.9336C116.41 21.8008 114.891 22.2344 112.953 22.2344C111.016 22.2344 109.43 21.9336 108.195 21.332V18.6836C108.977 19.0508 109.805 19.3398 110.68 19.5508C111.562 19.7617 112.383 19.8672 113.141 19.8672C114.25 19.8672 115.066 19.6562 115.59 19.2344C116.121 18.8125 116.387 18.2461 116.387 17.5352C116.387 16.8945 116.145 16.3516 115.66 15.9062C115.176 15.4609 114.176 14.9336 112.66 14.3242C111.098 13.6914 109.996 12.9688 109.355 12.1562C108.715 11.3438 108.395 10.3672 108.395 9.22656C108.395 7.79688 108.902 6.67188 109.918 5.85156C110.934 5.03125 112.297 4.62109 114.008 4.62109C115.648 4.62109 117.281 4.98047 118.906 5.69922L118.016 7.98438C116.492 7.34375 115.133 7.02344 113.938 7.02344C113.031 7.02344 112.344 7.22266 111.875 7.62109C111.406 8.01172 111.172 8.53125 111.172 9.17969C111.172 9.625 111.266 10.0078 111.453 10.3281C111.641 10.6406 111.949 10.9375 112.379 11.2188C112.809 11.5 113.582 11.8711 114.699 12.332C115.957 12.8555 116.879 13.3438 117.465 13.7969C118.051 14.25 118.48 14.7617 118.754 15.332C119.027 15.9023 119.164 16.5742 119.164 17.3477Z" fill="#777777"/>
</svg>
