<svg width="89" height="19" viewBox="0 0 89 19" fill="none" xmlns="http://www.w3.org/2000/svg">
<path d="M16.4727 9.41016C16.4727 12.1992 15.7734 14.3672 14.375 15.9141C12.9844 17.4609 11.0117 18.2344 8.45703 18.2344C5.87109 18.2344 3.88281 17.4688 2.49219 15.9375C1.10938 14.3984 0.417969 12.2148 0.417969 9.38672C0.417969 6.55859 1.11328 4.38672 2.50391 2.87109C3.90234 1.35547 5.89453 0.597656 8.48047 0.597656C11.0273 0.597656 12.9961 1.36719 14.3867 2.90625C15.7773 4.44531 16.4727 6.61328 16.4727 9.41016ZM3.39453 9.41016C3.39453 11.5195 3.82031 13.1211 4.67188 14.2148C5.52344 15.3008 6.78516 15.8438 8.45703 15.8438C10.1211 15.8438 11.375 15.3047 12.2188 14.2266C13.0703 13.1484 13.4961 11.543 13.4961 9.41016C13.4961 7.30859 13.0742 5.71484 12.2305 4.62891C11.3945 3.54297 10.1445 3 8.48047 3C6.80078 3 5.53125 3.54297 4.67188 4.62891C3.82031 5.71484 3.39453 7.30859 3.39453 9.41016ZM33.582 0.867188V11.9531C33.582 13.2188 33.3086 14.3281 32.7617 15.2812C32.2227 16.2266 31.4375 16.957 30.4062 17.4727C29.3828 17.9805 28.1562 18.2344 26.7266 18.2344C24.6016 18.2344 22.9492 17.6719 21.7695 16.5469C20.5898 15.4219 20 13.875 20 11.9062V0.867188H22.8125V11.707C22.8125 13.1211 23.1406 14.1641 23.7969 14.8359C24.4531 15.5078 25.4609 15.8438 26.8203 15.8438C29.4609 15.8438 30.7812 14.457 30.7812 11.6836V0.867188H33.582ZM43.8828 18H41.082V3.26953H36.043V0.867188H48.9219V3.26953H43.8828V18ZM51.5586 18V0.867188H54.3594V15.5977H61.6133V18H51.5586ZM74.2578 18H64.5664V0.867188H74.2578V3.23438H67.3672V7.89844H73.8242V10.2422H67.3672V15.6211H74.2578V18ZM83.8906 18H81.0898V3.26953H76.0508V0.867188H88.9297V3.26953H83.8906V18Z" fill="#777777"/>
</svg>
