<svg width="256" height="19" viewBox="0 0 256 19" fill="none" xmlns="http://www.w3.org/2000/svg">
<path d="M8.17969 18H5.37891V3.26953H0.339844V0.867188H13.2188V3.26953H8.17969V18ZM31.0664 9.41016C31.0664 12.1992 30.3672 14.3672 28.9688 15.9141C27.5781 17.4609 25.6055 18.2344 23.0508 18.2344C20.4648 18.2344 18.4766 17.4688 17.0859 15.9375C15.7031 14.3984 15.0117 12.2148 15.0117 9.38672C15.0117 6.55859 15.707 4.38672 17.0977 2.87109C18.4961 1.35547 20.4883 0.597656 23.0742 0.597656C25.6211 0.597656 27.5898 1.36719 28.9805 2.90625C30.3711 4.44531 31.0664 6.61328 31.0664 9.41016ZM17.9883 9.41016C17.9883 11.5195 18.4141 13.1211 19.2656 14.2148C20.1172 15.3008 21.3789 15.8438 23.0508 15.8438C24.7148 15.8438 25.9688 15.3047 26.8125 14.2266C27.6641 13.1484 28.0898 11.543 28.0898 9.41016C28.0898 7.30859 27.668 5.71484 26.8242 4.62891C25.9883 3.54297 24.7383 3 23.0742 3C21.3945 3 20.125 3.54297 19.2656 4.62891C18.4141 5.71484 17.9883 7.30859 17.9883 9.41016ZM48.6797 9.26953C48.6797 12.0977 47.8945 14.2617 46.3242 15.7617C44.7539 17.2539 42.4922 18 39.5391 18H34.7461V0.867188H40.043C42.7695 0.867188 44.8906 1.60156 46.4062 3.07031C47.9219 4.53906 48.6797 6.60547 48.6797 9.26953ZM45.7266 9.36328C45.7266 5.26172 43.8086 3.21094 39.9727 3.21094H37.5469V15.6445H39.5391C43.6641 15.6445 45.7266 13.5508 45.7266 9.36328ZM67.582 9.41016C67.582 12.1992 66.8828 14.3672 65.4844 15.9141C64.0938 17.4609 62.1211 18.2344 59.5664 18.2344C56.9805 18.2344 54.9922 17.4688 53.6016 15.9375C52.2188 14.3984 51.5273 12.2148 51.5273 9.38672C51.5273 6.55859 52.2227 4.38672 53.6133 2.87109C55.0117 1.35547 57.0039 0.597656 59.5898 0.597656C62.1367 0.597656 64.1055 1.36719 65.4961 2.90625C66.8867 4.44531 67.582 6.61328 67.582 9.41016ZM54.5039 9.41016C54.5039 11.5195 54.9297 13.1211 55.7812 14.2148C56.6328 15.3008 57.8945 15.8438 59.5664 15.8438C61.2305 15.8438 62.4844 15.3047 63.3281 14.2266C64.1797 13.1484 64.6055 11.543 64.6055 9.41016C64.6055 7.30859 64.1836 5.71484 63.3398 4.62891C62.5039 3.54297 61.2539 3 59.5898 3C57.9102 3 56.6406 3.54297 55.7812 4.62891C54.9297 5.71484 54.5039 7.30859 54.5039 9.41016ZM81.1406 13.3477C81.1406 14.8711 80.5898 16.0664 79.4883 16.9336C78.3867 17.8008 76.8672 18.2344 74.9297 18.2344C72.9922 18.2344 71.4062 17.9336 70.1719 17.332V14.6836C70.9531 15.0508 71.7812 15.3398 72.6562 15.5508C73.5391 15.7617 74.3594 15.8672 75.1172 15.8672C76.2266 15.8672 77.043 15.6562 77.5664 15.2344C78.0977 14.8125 78.3633 14.2461 78.3633 13.5352C78.3633 12.8945 78.1211 12.3516 77.6367 11.9062C77.1523 11.4609 76.1523 10.9336 74.6367 10.3242C73.0742 9.69141 71.9727 8.96875 71.332 8.15625C70.6914 7.34375 70.3711 6.36719 70.3711 5.22656C70.3711 3.79688 70.8789 2.67188 71.8945 1.85156C72.9102 1.03125 74.2734 0.621094 75.9844 0.621094C77.625 0.621094 79.2578 0.980469 80.8828 1.69922L79.9922 3.98438C78.4688 3.34375 77.1094 3.02344 75.9141 3.02344C75.0078 3.02344 74.3203 3.22266 73.8516 3.62109C73.3828 4.01172 73.1484 4.53125 73.1484 5.17969C73.1484 5.625 73.2422 6.00781 73.4297 6.32812C73.6172 6.64062 73.9258 6.9375 74.3555 7.21875C74.7852 7.5 75.5586 7.87109 76.6758 8.33203C77.9336 8.85547 78.8555 9.34375 79.4414 9.79688C80.0273 10.25 80.457 10.7617 80.7305 11.332C81.0039 11.9023 81.1406 12.5742 81.1406 13.3477ZM105.902 9.41016C105.902 12.1992 105.203 14.3672 103.805 15.9141C102.414 17.4609 100.441 18.2344 97.8867 18.2344C95.3008 18.2344 93.3125 17.4688 91.9219 15.9375C90.5391 14.3984 89.8477 12.2148 89.8477 9.38672C89.8477 6.55859 90.543 4.38672 91.9336 2.87109C93.332 1.35547 95.3242 0.597656 97.9102 0.597656C100.457 0.597656 102.426 1.36719 103.816 2.90625C105.207 4.44531 105.902 6.61328 105.902 9.41016ZM92.8242 9.41016C92.8242 11.5195 93.25 13.1211 94.1016 14.2148C94.9531 15.3008 96.2148 15.8438 97.8867 15.8438C99.5508 15.8438 100.805 15.3047 101.648 14.2266C102.5 13.1484 102.926 11.543 102.926 9.41016C102.926 7.30859 102.504 5.71484 101.66 4.62891C100.824 3.54297 99.5742 3 97.9102 3C96.2305 3 94.9609 3.54297 94.1016 4.62891C93.25 5.71484 92.8242 7.30859 92.8242 9.41016ZM119.461 13.3477C119.461 14.8711 118.91 16.0664 117.809 16.9336C116.707 17.8008 115.188 18.2344 113.25 18.2344C111.312 18.2344 109.727 17.9336 108.492 17.332V14.6836C109.273 15.0508 110.102 15.3398 110.977 15.5508C111.859 15.7617 112.68 15.8672 113.438 15.8672C114.547 15.8672 115.363 15.6562 115.887 15.2344C116.418 14.8125 116.684 14.2461 116.684 13.5352C116.684 12.8945 116.441 12.3516 115.957 11.9062C115.473 11.4609 114.473 10.9336 112.957 10.3242C111.395 9.69141 110.293 8.96875 109.652 8.15625C109.012 7.34375 108.691 6.36719 108.691 5.22656C108.691 3.79688 109.199 2.67188 110.215 1.85156C111.23 1.03125 112.594 0.621094 114.305 0.621094C115.945 0.621094 117.578 0.980469 119.203 1.69922L118.312 3.98438C116.789 3.34375 115.43 3.02344 114.234 3.02344C113.328 3.02344 112.641 3.22266 112.172 3.62109C111.703 4.01172 111.469 4.53125 111.469 5.17969C111.469 5.625 111.562 6.00781 111.75 6.32812C111.938 6.64062 112.246 6.9375 112.676 7.21875C113.105 7.5 113.879 7.87109 114.996 8.33203C116.254 8.85547 117.176 9.34375 117.762 9.79688C118.348 10.25 118.777 10.7617 119.051 11.332C119.324 11.9023 119.461 12.5742 119.461 13.3477ZM140.355 6.04688C140.355 7.83594 139.77 9.20703 138.598 10.1602C137.426 11.1133 135.758 11.5898 133.594 11.5898H131.812V18H129.012V0.867188H133.945C136.086 0.867188 137.688 1.30469 138.75 2.17969C139.82 3.05469 140.355 4.34375 140.355 6.04688ZM131.812 9.23438H133.301C134.738 9.23438 135.793 8.98438 136.465 8.48438C137.137 7.98438 137.473 7.20312 137.473 6.14062C137.473 5.15625 137.172 4.42188 136.57 3.9375C135.969 3.45312 135.031 3.21094 133.758 3.21094H131.812V9.23438ZM146.578 8.83594H148.523C149.828 8.83594 150.773 8.59375 151.359 8.10938C151.945 7.625 152.238 6.90625 152.238 5.95312C152.238 4.98438 151.922 4.28906 151.289 3.86719C150.656 3.44531 149.703 3.23438 148.43 3.23438H146.578V8.83594ZM146.578 11.1562V18H143.777V0.867188H148.617C150.828 0.867188 152.465 1.28125 153.527 2.10938C154.59 2.9375 155.121 4.1875 155.121 5.85938C155.121 7.99219 154.012 9.51172 151.793 10.418L156.633 18H153.445L149.344 11.1562H146.578ZM174.34 9.41016C174.34 12.1992 173.641 14.3672 172.242 15.9141C170.852 17.4609 168.879 18.2344 166.324 18.2344C163.738 18.2344 161.75 17.4688 160.359 15.9375C158.977 14.3984 158.285 12.2148 158.285 9.38672C158.285 6.55859 158.98 4.38672 160.371 2.87109C161.77 1.35547 163.762 0.597656 166.348 0.597656C168.895 0.597656 170.863 1.36719 172.254 2.90625C173.645 4.44531 174.34 6.61328 174.34 9.41016ZM161.262 9.41016C161.262 11.5195 161.688 13.1211 162.539 14.2148C163.391 15.3008 164.652 15.8438 166.324 15.8438C167.988 15.8438 169.242 15.3047 170.086 14.2266C170.938 13.1484 171.363 11.543 171.363 9.41016C171.363 7.30859 170.941 5.71484 170.098 4.62891C169.262 3.54297 168.012 3 166.348 3C164.668 3 163.398 3.54297 162.539 4.62891C161.688 5.71484 161.262 7.30859 161.262 9.41016ZM191.953 9.26953C191.953 12.0977 191.168 14.2617 189.598 15.7617C188.027 17.2539 185.766 18 182.812 18H178.02V0.867188H183.316C186.043 0.867188 188.164 1.60156 189.68 3.07031C191.195 4.53906 191.953 6.60547 191.953 9.26953ZM189 9.36328C189 5.26172 187.082 3.21094 183.246 3.21094H180.82V15.6445H182.812C186.938 15.6445 189 13.5508 189 9.36328ZM209.074 0.867188V11.9531C209.074 13.2188 208.801 14.3281 208.254 15.2812C207.715 16.2266 206.93 16.957 205.898 17.4727C204.875 17.9805 203.648 18.2344 202.219 18.2344C200.094 18.2344 198.441 17.6719 197.262 16.5469C196.082 15.4219 195.492 13.875 195.492 11.9062V0.867188H198.305V11.707C198.305 13.1211 198.633 14.1641 199.289 14.8359C199.945 15.5078 200.953 15.8438 202.312 15.8438C204.953 15.8438 206.273 14.457 206.273 11.6836V0.867188H209.074ZM219.375 18H216.574V3.26953H211.535V0.867188H224.414V3.26953H219.375V18ZM242.262 9.41016C242.262 12.1992 241.562 14.3672 240.164 15.9141C238.773 17.4609 236.801 18.2344 234.246 18.2344C231.66 18.2344 229.672 17.4688 228.281 15.9375C226.898 14.3984 226.207 12.2148 226.207 9.38672C226.207 6.55859 226.902 4.38672 228.293 2.87109C229.691 1.35547 231.684 0.597656 234.27 0.597656C236.816 0.597656 238.785 1.36719 240.176 2.90625C241.566 4.44531 242.262 6.61328 242.262 9.41016ZM229.184 9.41016C229.184 11.5195 229.609 13.1211 230.461 14.2148C231.312 15.3008 232.574 15.8438 234.246 15.8438C235.91 15.8438 237.164 15.3047 238.008 14.2266C238.859 13.1484 239.285 11.543 239.285 9.41016C239.285 7.30859 238.863 5.71484 238.02 4.62891C237.184 3.54297 235.934 3 234.27 3C232.59 3 231.32 3.54297 230.461 4.62891C229.609 5.71484 229.184 7.30859 229.184 9.41016ZM255.82 13.3477C255.82 14.8711 255.27 16.0664 254.168 16.9336C253.066 17.8008 251.547 18.2344 249.609 18.2344C247.672 18.2344 246.086 17.9336 244.852 17.332V14.6836C245.633 15.0508 246.461 15.3398 247.336 15.5508C248.219 15.7617 249.039 15.8672 249.797 15.8672C250.906 15.8672 251.723 15.6562 252.246 15.2344C252.777 14.8125 253.043 14.2461 253.043 13.5352C253.043 12.8945 252.801 12.3516 252.316 11.9062C251.832 11.4609 250.832 10.9336 249.316 10.3242C247.754 9.69141 246.652 8.96875 246.012 8.15625C245.371 7.34375 245.051 6.36719 245.051 5.22656C245.051 3.79688 245.559 2.67188 246.574 1.85156C247.59 1.03125 248.953 0.621094 250.664 0.621094C252.305 0.621094 253.938 0.980469 255.562 1.69922L254.672 3.98438C253.148 3.34375 251.789 3.02344 250.594 3.02344C249.688 3.02344 249 3.22266 248.531 3.62109C248.062 4.01172 247.828 4.53125 247.828 5.17969C247.828 5.625 247.922 6.00781 248.109 6.32812C248.297 6.64062 248.605 6.9375 249.035 7.21875C249.465 7.5 250.238 7.87109 251.355 8.33203C252.613 8.85547 253.535 9.34375 254.121 9.79688C254.707 10.25 255.137 10.7617 255.41 11.332C255.684 11.9023 255.82 12.5742 255.82 13.3477Z" fill="#777777"/>
</svg>
